<mxfile host="app.diagrams.net" agent="Mozilla/5.0 (Windows NT 10.0; Win64; x64) AppleWebKit/537.36 (KHTML, like Gecko) Chrome/131.0.0.0 Safari/537.36" version="25.0.3">
  <diagram name="หน้า-1" id="z8GU-KmcdF2-k0o7ntWu">
    <mxGraphModel dx="1477" dy="637" grid="1" gridSize="10" guides="1" tooltips="1" connect="1" arrows="1" fold="1" page="1" pageScale="1" pageWidth="827" pageHeight="1169" math="0" shadow="0">
      <root>
        <mxCell id="0" />
        <mxCell id="1" parent="0" />
        <mxCell id="U9RyShKc95j7XySrOqH9-3" value="" style="edgeStyle=orthogonalEdgeStyle;rounded=0;orthogonalLoop=1;jettySize=auto;html=1;" edge="1" parent="1" source="U9RyShKc95j7XySrOqH9-1" target="U9RyShKc95j7XySrOqH9-2">
          <mxGeometry relative="1" as="geometry" />
        </mxCell>
        <mxCell id="U9RyShKc95j7XySrOqH9-1" value="start" style="strokeWidth=2;html=1;shape=mxgraph.flowchart.start_1;whiteSpace=wrap;" vertex="1" parent="1">
          <mxGeometry x="350" y="40" width="100" height="60" as="geometry" />
        </mxCell>
        <mxCell id="U9RyShKc95j7XySrOqH9-5" value="" style="edgeStyle=orthogonalEdgeStyle;rounded=0;orthogonalLoop=1;jettySize=auto;html=1;" edge="1" parent="1" source="U9RyShKc95j7XySrOqH9-2" target="U9RyShKc95j7XySrOqH9-4">
          <mxGeometry relative="1" as="geometry" />
        </mxCell>
        <mxCell id="U9RyShKc95j7XySrOqH9-2" value="สร้างตัวแปร num1, num2, num3" style="whiteSpace=wrap;html=1;strokeWidth=2;" vertex="1" parent="1">
          <mxGeometry x="340" y="180" width="120" height="60" as="geometry" />
        </mxCell>
        <mxCell id="U9RyShKc95j7XySrOqH9-7" value="" style="edgeStyle=orthogonalEdgeStyle;rounded=0;orthogonalLoop=1;jettySize=auto;html=1;" edge="1" parent="1" source="U9RyShKc95j7XySrOqH9-4" target="U9RyShKc95j7XySrOqH9-6">
          <mxGeometry relative="1" as="geometry" />
        </mxCell>
        <mxCell id="U9RyShKc95j7XySrOqH9-4" value="แสดง Input[1] :" style="shape=parallelogram;perimeter=parallelogramPerimeter;whiteSpace=wrap;html=1;fixedSize=1;strokeWidth=2;" vertex="1" parent="1">
          <mxGeometry x="340" y="320" width="120" height="60" as="geometry" />
        </mxCell>
        <mxCell id="U9RyShKc95j7XySrOqH9-9" value="" style="edgeStyle=orthogonalEdgeStyle;rounded=0;orthogonalLoop=1;jettySize=auto;html=1;" edge="1" parent="1" source="U9RyShKc95j7XySrOqH9-6" target="U9RyShKc95j7XySrOqH9-8">
          <mxGeometry relative="1" as="geometry" />
        </mxCell>
        <mxCell id="U9RyShKc95j7XySrOqH9-6" value="รับค่าจากผู้ใช้" style="shape=parallelogram;perimeter=parallelogramPerimeter;whiteSpace=wrap;html=1;fixedSize=1;strokeWidth=2;" vertex="1" parent="1">
          <mxGeometry x="340" y="460" width="120" height="60" as="geometry" />
        </mxCell>
        <mxCell id="U9RyShKc95j7XySrOqH9-11" value="" style="edgeStyle=orthogonalEdgeStyle;rounded=0;orthogonalLoop=1;jettySize=auto;html=1;" edge="1" parent="1" source="U9RyShKc95j7XySrOqH9-8" target="U9RyShKc95j7XySrOqH9-10">
          <mxGeometry relative="1" as="geometry" />
        </mxCell>
        <mxCell id="U9RyShKc95j7XySrOqH9-8" value="แสดง Input[2] :" style="shape=parallelogram;perimeter=parallelogramPerimeter;whiteSpace=wrap;html=1;fixedSize=1;strokeWidth=2;" vertex="1" parent="1">
          <mxGeometry x="340" y="580" width="120" height="60" as="geometry" />
        </mxCell>
        <mxCell id="U9RyShKc95j7XySrOqH9-13" value="" style="edgeStyle=orthogonalEdgeStyle;rounded=0;orthogonalLoop=1;jettySize=auto;html=1;" edge="1" parent="1" source="U9RyShKc95j7XySrOqH9-10" target="U9RyShKc95j7XySrOqH9-12">
          <mxGeometry relative="1" as="geometry" />
        </mxCell>
        <mxCell id="U9RyShKc95j7XySrOqH9-10" value="รับค่าจากผู้ใช้" style="shape=parallelogram;perimeter=parallelogramPerimeter;whiteSpace=wrap;html=1;fixedSize=1;strokeWidth=2;" vertex="1" parent="1">
          <mxGeometry x="340" y="710" width="120" height="60" as="geometry" />
        </mxCell>
        <mxCell id="U9RyShKc95j7XySrOqH9-15" value="" style="edgeStyle=orthogonalEdgeStyle;rounded=0;orthogonalLoop=1;jettySize=auto;html=1;" edge="1" parent="1" source="U9RyShKc95j7XySrOqH9-12" target="U9RyShKc95j7XySrOqH9-14">
          <mxGeometry relative="1" as="geometry" />
        </mxCell>
        <mxCell id="U9RyShKc95j7XySrOqH9-12" value="แสดง Input[3] :" style="shape=parallelogram;perimeter=parallelogramPerimeter;whiteSpace=wrap;html=1;fixedSize=1;strokeWidth=2;" vertex="1" parent="1">
          <mxGeometry x="340" y="830" width="120" height="60" as="geometry" />
        </mxCell>
        <mxCell id="U9RyShKc95j7XySrOqH9-17" value="" style="edgeStyle=orthogonalEdgeStyle;rounded=0;orthogonalLoop=1;jettySize=auto;html=1;" edge="1" parent="1" source="U9RyShKc95j7XySrOqH9-14" target="U9RyShKc95j7XySrOqH9-16">
          <mxGeometry relative="1" as="geometry" />
        </mxCell>
        <mxCell id="U9RyShKc95j7XySrOqH9-14" value="รับค่าจากผู้ใช้" style="shape=parallelogram;perimeter=parallelogramPerimeter;whiteSpace=wrap;html=1;fixedSize=1;strokeWidth=2;" vertex="1" parent="1">
          <mxGeometry x="340" y="950" width="120" height="60" as="geometry" />
        </mxCell>
        <mxCell id="U9RyShKc95j7XySrOqH9-19" value="" style="edgeStyle=orthogonalEdgeStyle;rounded=0;orthogonalLoop=1;jettySize=auto;html=1;" edge="1" parent="1" source="U9RyShKc95j7XySrOqH9-16" target="U9RyShKc95j7XySrOqH9-18">
          <mxGeometry relative="1" as="geometry" />
        </mxCell>
        <mxCell id="U9RyShKc95j7XySrOqH9-28" value="" style="edgeStyle=orthogonalEdgeStyle;rounded=0;orthogonalLoop=1;jettySize=auto;html=1;" edge="1" parent="1" source="U9RyShKc95j7XySrOqH9-16" target="U9RyShKc95j7XySrOqH9-27">
          <mxGeometry relative="1" as="geometry" />
        </mxCell>
        <mxCell id="U9RyShKc95j7XySrOqH9-16" value="num1 &amp;gt;= num 2 และ num1 &amp;gt;= num3 ?" style="rhombus;whiteSpace=wrap;html=1;strokeWidth=2;" vertex="1" parent="1">
          <mxGeometry x="260" y="1060" width="280" height="120" as="geometry" />
        </mxCell>
        <mxCell id="U9RyShKc95j7XySrOqH9-21" value="" style="edgeStyle=orthogonalEdgeStyle;rounded=0;orthogonalLoop=1;jettySize=auto;html=1;" edge="1" parent="1" source="U9RyShKc95j7XySrOqH9-18" target="U9RyShKc95j7XySrOqH9-20">
          <mxGeometry relative="1" as="geometry" />
        </mxCell>
        <mxCell id="U9RyShKc95j7XySrOqH9-23" value="" style="edgeStyle=orthogonalEdgeStyle;rounded=0;orthogonalLoop=1;jettySize=auto;html=1;" edge="1" parent="1" source="U9RyShKc95j7XySrOqH9-18" target="U9RyShKc95j7XySrOqH9-22">
          <mxGeometry relative="1" as="geometry" />
        </mxCell>
        <mxCell id="U9RyShKc95j7XySrOqH9-18" value="num2 &amp;gt; =num3 ?" style="rhombus;whiteSpace=wrap;html=1;strokeWidth=2;" vertex="1" parent="1">
          <mxGeometry x="620" y="1075" width="160" height="90" as="geometry" />
        </mxCell>
        <mxCell id="U9RyShKc95j7XySrOqH9-20" value="แสดง num1, num2, num3" style="shape=parallelogram;perimeter=parallelogramPerimeter;whiteSpace=wrap;html=1;fixedSize=1;strokeWidth=2;" vertex="1" parent="1">
          <mxGeometry x="610" y="1260" width="180" height="60" as="geometry" />
        </mxCell>
        <mxCell id="U9RyShKc95j7XySrOqH9-62" style="edgeStyle=orthogonalEdgeStyle;rounded=0;orthogonalLoop=1;jettySize=auto;html=1;exitDx=0;exitDy=0;" edge="1" parent="1" source="U9RyShKc95j7XySrOqH9-63" target="U9RyShKc95j7XySrOqH9-49">
          <mxGeometry relative="1" as="geometry">
            <Array as="points">
              <mxPoint x="930" y="1390" />
              <mxPoint x="1150" y="1390" />
              <mxPoint x="1150" y="2200" />
            </Array>
          </mxGeometry>
        </mxCell>
        <mxCell id="U9RyShKc95j7XySrOqH9-22" value="แสดง num1, num3, num2" style="shape=parallelogram;perimeter=parallelogramPerimeter;whiteSpace=wrap;html=1;fixedSize=1;strokeWidth=2;" vertex="1" parent="1">
          <mxGeometry x="840" y="1260" width="180" height="60" as="geometry" />
        </mxCell>
        <mxCell id="U9RyShKc95j7XySrOqH9-24" value="T" style="text;html=1;align=center;verticalAlign=middle;whiteSpace=wrap;rounded=0;" vertex="1" parent="1">
          <mxGeometry x="540" y="1090" width="60" height="30" as="geometry" />
        </mxCell>
        <mxCell id="U9RyShKc95j7XySrOqH9-25" value="T" style="text;html=1;align=center;verticalAlign=middle;whiteSpace=wrap;rounded=0;" vertex="1" parent="1">
          <mxGeometry x="640" y="1165" width="60" height="30" as="geometry" />
        </mxCell>
        <mxCell id="U9RyShKc95j7XySrOqH9-26" value="F" style="text;html=1;align=center;verticalAlign=middle;whiteSpace=wrap;rounded=0;" vertex="1" parent="1">
          <mxGeometry x="767" y="1090" width="60" height="30" as="geometry" />
        </mxCell>
        <mxCell id="U9RyShKc95j7XySrOqH9-30" value="" style="edgeStyle=orthogonalEdgeStyle;rounded=0;orthogonalLoop=1;jettySize=auto;html=1;" edge="1" parent="1" source="U9RyShKc95j7XySrOqH9-27" target="U9RyShKc95j7XySrOqH9-29">
          <mxGeometry relative="1" as="geometry" />
        </mxCell>
        <mxCell id="U9RyShKc95j7XySrOqH9-40" value="" style="edgeStyle=orthogonalEdgeStyle;rounded=0;orthogonalLoop=1;jettySize=auto;html=1;" edge="1" parent="1" source="U9RyShKc95j7XySrOqH9-27" target="U9RyShKc95j7XySrOqH9-39">
          <mxGeometry relative="1" as="geometry" />
        </mxCell>
        <mxCell id="U9RyShKc95j7XySrOqH9-27" value="num2 &amp;gt;= num1 และ num2 &amp;gt;= num3 ?" style="rhombus;whiteSpace=wrap;html=1;strokeWidth=2;" vertex="1" parent="1">
          <mxGeometry x="260" y="1420" width="280" height="120" as="geometry" />
        </mxCell>
        <mxCell id="U9RyShKc95j7XySrOqH9-33" value="" style="edgeStyle=orthogonalEdgeStyle;rounded=0;orthogonalLoop=1;jettySize=auto;html=1;" edge="1" parent="1" source="U9RyShKc95j7XySrOqH9-29" target="U9RyShKc95j7XySrOqH9-31">
          <mxGeometry relative="1" as="geometry" />
        </mxCell>
        <mxCell id="U9RyShKc95j7XySrOqH9-34" value="" style="edgeStyle=orthogonalEdgeStyle;rounded=0;orthogonalLoop=1;jettySize=auto;html=1;" edge="1" parent="1" source="U9RyShKc95j7XySrOqH9-29" target="U9RyShKc95j7XySrOqH9-32">
          <mxGeometry relative="1" as="geometry" />
        </mxCell>
        <mxCell id="U9RyShKc95j7XySrOqH9-29" value="num1 &amp;gt; =num3 ?" style="rhombus;whiteSpace=wrap;html=1;strokeWidth=2;" vertex="1" parent="1">
          <mxGeometry x="630" y="1435" width="160" height="90" as="geometry" />
        </mxCell>
        <mxCell id="U9RyShKc95j7XySrOqH9-61" style="edgeStyle=orthogonalEdgeStyle;rounded=0;orthogonalLoop=1;jettySize=auto;html=1;exitX=0.5;exitY=1;exitDx=0;exitDy=0;" edge="1" parent="1" source="U9RyShKc95j7XySrOqH9-31" target="U9RyShKc95j7XySrOqH9-59">
          <mxGeometry relative="1" as="geometry">
            <Array as="points">
              <mxPoint x="710" y="1730" />
            </Array>
          </mxGeometry>
        </mxCell>
        <mxCell id="U9RyShKc95j7XySrOqH9-31" value="แสดง num2, num1&lt;span style=&quot;color: rgba(0, 0, 0, 0); font-family: monospace; font-size: 0px; text-align: start; text-wrap-mode: nowrap;&quot;&gt;%3CmxGraphModel%3E%3Croot%3E%3CmxCell%20id%3D%220%22%2F%3E%3CmxCell%20id%3D%221%22%20parent%3D%220%22%2F%3E%3CmxCell%20id%3D%222%22%20value%3D%22%E0%B9%81%E0%B8%AA%E0%B8%94%E0%B8%87%20num1%2C%20num2%2C%20num3%22%20style%3D%22shape%3Dparallelogram%3Bperimeter%3DparallelogramPerimeter%3BwhiteSpace%3Dwrap%3Bhtml%3D1%3BfixedSize%3D1%3BstrokeWidth%3D2%3B%22%20vertex%3D%221%22%20parent%3D%221%22%3E%3CmxGeometry%20x%3D%22610%22%20y%3D%221260%22%20width%3D%22180%22%20height%3D%2260%22%20as%3D%22geometry%22%2F%3E%3C%2FmxCell%3E%3C%2Froot%3E%3C%2FmxGraphModel%3E&lt;/span&gt;, num3" style="shape=parallelogram;perimeter=parallelogramPerimeter;whiteSpace=wrap;html=1;fixedSize=1;strokeWidth=2;" vertex="1" parent="1">
          <mxGeometry x="620" y="1610" width="180" height="60" as="geometry" />
        </mxCell>
        <mxCell id="U9RyShKc95j7XySrOqH9-32" value="แสดง num2, num3, num1" style="shape=parallelogram;perimeter=parallelogramPerimeter;whiteSpace=wrap;html=1;fixedSize=1;strokeWidth=2;" vertex="1" parent="1">
          <mxGeometry x="840" y="1610" width="180" height="60" as="geometry" />
        </mxCell>
        <mxCell id="U9RyShKc95j7XySrOqH9-35" value="T" style="text;html=1;align=center;verticalAlign=middle;whiteSpace=wrap;rounded=0;" vertex="1" parent="1">
          <mxGeometry x="540" y="1430" width="60" height="30" as="geometry" />
        </mxCell>
        <mxCell id="U9RyShKc95j7XySrOqH9-36" value="T" style="text;html=1;align=center;verticalAlign=middle;whiteSpace=wrap;rounded=0;" vertex="1" parent="1">
          <mxGeometry x="630" y="1525" width="60" height="30" as="geometry" />
        </mxCell>
        <mxCell id="U9RyShKc95j7XySrOqH9-37" value="F" style="text;html=1;align=center;verticalAlign=middle;whiteSpace=wrap;rounded=0;" vertex="1" parent="1">
          <mxGeometry x="777" y="1435" width="60" height="30" as="geometry" />
        </mxCell>
        <mxCell id="U9RyShKc95j7XySrOqH9-38" value="F" style="text;html=1;align=center;verticalAlign=middle;whiteSpace=wrap;rounded=0;" vertex="1" parent="1">
          <mxGeometry x="320" y="1195" width="60" height="30" as="geometry" />
        </mxCell>
        <mxCell id="U9RyShKc95j7XySrOqH9-42" value="" style="edgeStyle=orthogonalEdgeStyle;rounded=0;orthogonalLoop=1;jettySize=auto;html=1;" edge="1" parent="1" source="U9RyShKc95j7XySrOqH9-39" target="U9RyShKc95j7XySrOqH9-41">
          <mxGeometry relative="1" as="geometry" />
        </mxCell>
        <mxCell id="U9RyShKc95j7XySrOqH9-39" value="num3 &amp;gt;= num1 และ num3 &amp;gt;= num2 ?" style="rhombus;whiteSpace=wrap;html=1;strokeWidth=2;" vertex="1" parent="1">
          <mxGeometry x="260" y="1754" width="280" height="120" as="geometry" />
        </mxCell>
        <mxCell id="U9RyShKc95j7XySrOqH9-44" value="" style="edgeStyle=orthogonalEdgeStyle;rounded=0;orthogonalLoop=1;jettySize=auto;html=1;" edge="1" parent="1" source="U9RyShKc95j7XySrOqH9-41" target="U9RyShKc95j7XySrOqH9-43">
          <mxGeometry relative="1" as="geometry" />
        </mxCell>
        <mxCell id="U9RyShKc95j7XySrOqH9-46" value="" style="edgeStyle=orthogonalEdgeStyle;rounded=0;orthogonalLoop=1;jettySize=auto;html=1;" edge="1" parent="1" source="U9RyShKc95j7XySrOqH9-41" target="U9RyShKc95j7XySrOqH9-45">
          <mxGeometry relative="1" as="geometry" />
        </mxCell>
        <mxCell id="U9RyShKc95j7XySrOqH9-41" value="num1 &amp;gt; =num2 ?" style="rhombus;whiteSpace=wrap;html=1;strokeWidth=2;" vertex="1" parent="1">
          <mxGeometry x="630" y="1769" width="160" height="90" as="geometry" />
        </mxCell>
        <mxCell id="U9RyShKc95j7XySrOqH9-48" value="" style="edgeStyle=orthogonalEdgeStyle;rounded=0;orthogonalLoop=1;jettySize=auto;html=1;" edge="1" parent="1" source="U9RyShKc95j7XySrOqH9-49" target="U9RyShKc95j7XySrOqH9-47">
          <mxGeometry relative="1" as="geometry" />
        </mxCell>
        <mxCell id="U9RyShKc95j7XySrOqH9-43" value="แสดง num3, num1&lt;span style=&quot;color: rgba(0, 0, 0, 0); font-family: monospace; font-size: 0px; text-align: start; text-wrap-mode: nowrap;&quot;&gt;%3CmxGraphModel%3E%3Croot%3E%3CmxCell%20id%3D%220%22%2F%3E%3CmxCell%20id%3D%221%22%20parent%3D%220%22%2F%3E%3CmxCell%20id%3D%222%22%20value%3D%22%E0%B9%81%E0%B8%AA%E0%B8%94%E0%B8%87%20num1%2C%20num2%2C%20num3%22%20style%3D%22shape%3Dparallelogram%3Bperimeter%3DparallelogramPerimeter%3BwhiteSpace%3Dwrap%3Bhtml%3D1%3BfixedSize%3D1%3BstrokeWidth%3D2%3B%22%20vertex%3D%221%22%20parent%3D%221%22%3E%3CmxGeometry%20x%3D%22610%22%20y%3D%221260%22%20width%3D%22180%22%20height%3D%2260%22%20as%3D%22geometry%22%2F%3E%3C%2FmxCell%3E%3C%2Froot%3E%3C%2FmxGraphModel%3E&lt;/span&gt;, num2" style="shape=parallelogram;perimeter=parallelogramPerimeter;whiteSpace=wrap;html=1;fixedSize=1;strokeWidth=2;" vertex="1" parent="1">
          <mxGeometry x="620" y="1950" width="180" height="60" as="geometry" />
        </mxCell>
        <mxCell id="U9RyShKc95j7XySrOqH9-50" value="" style="edgeStyle=orthogonalEdgeStyle;rounded=0;orthogonalLoop=1;jettySize=auto;html=1;" edge="1" parent="1" source="U9RyShKc95j7XySrOqH9-45" target="U9RyShKc95j7XySrOqH9-49">
          <mxGeometry relative="1" as="geometry">
            <Array as="points">
              <mxPoint x="940" y="2200" />
            </Array>
          </mxGeometry>
        </mxCell>
        <mxCell id="U9RyShKc95j7XySrOqH9-45" value="แสดง num3, num2, num1" style="shape=parallelogram;perimeter=parallelogramPerimeter;whiteSpace=wrap;html=1;fixedSize=1;strokeWidth=2;" vertex="1" parent="1">
          <mxGeometry x="850" y="1950" width="180" height="60" as="geometry" />
        </mxCell>
        <mxCell id="U9RyShKc95j7XySrOqH9-47" value="end" style="strokeWidth=2;html=1;shape=mxgraph.flowchart.start_1;whiteSpace=wrap;" vertex="1" parent="1">
          <mxGeometry x="340" y="2250" width="100" height="60" as="geometry" />
        </mxCell>
        <mxCell id="U9RyShKc95j7XySrOqH9-51" value="" style="edgeStyle=orthogonalEdgeStyle;rounded=0;orthogonalLoop=1;jettySize=auto;html=1;" edge="1" parent="1" source="U9RyShKc95j7XySrOqH9-43" target="U9RyShKc95j7XySrOqH9-49">
          <mxGeometry relative="1" as="geometry">
            <mxPoint x="710" y="2010" as="sourcePoint" />
            <mxPoint x="710" y="2260" as="targetPoint" />
            <Array as="points">
              <mxPoint x="710" y="2200" />
            </Array>
          </mxGeometry>
        </mxCell>
        <mxCell id="U9RyShKc95j7XySrOqH9-49" value="" style="shape=waypoint;sketch=0;size=6;pointerEvents=1;points=[];fillColor=default;resizable=0;rotatable=0;perimeter=centerPerimeter;snapToPoint=1;strokeWidth=2;" vertex="1" parent="1">
          <mxGeometry x="700" y="2190" width="20" height="20" as="geometry" />
        </mxCell>
        <mxCell id="U9RyShKc95j7XySrOqH9-56" style="edgeStyle=orthogonalEdgeStyle;rounded=0;orthogonalLoop=1;jettySize=auto;html=1;exitDx=0;exitDy=0;entryX=1.079;entryY=0.579;entryDx=0;entryDy=0;entryPerimeter=0;" edge="1" parent="1" source="U9RyShKc95j7XySrOqH9-59" target="U9RyShKc95j7XySrOqH9-49">
          <mxGeometry relative="1" as="geometry">
            <Array as="points">
              <mxPoint x="930" y="1730" />
              <mxPoint x="1150" y="1730" />
              <mxPoint x="1150" y="2200" />
            </Array>
          </mxGeometry>
        </mxCell>
        <mxCell id="U9RyShKc95j7XySrOqH9-60" value="" style="edgeStyle=orthogonalEdgeStyle;rounded=0;orthogonalLoop=1;jettySize=auto;html=1;exitX=0.5;exitY=1;exitDx=0;exitDy=0;entryDx=0;entryDy=0;entryPerimeter=0;" edge="1" parent="1" source="U9RyShKc95j7XySrOqH9-32" target="U9RyShKc95j7XySrOqH9-59">
          <mxGeometry relative="1" as="geometry">
            <mxPoint x="930" y="1670" as="sourcePoint" />
            <mxPoint x="710" y="2200" as="targetPoint" />
            <Array as="points" />
          </mxGeometry>
        </mxCell>
        <mxCell id="U9RyShKc95j7XySrOqH9-59" value="" style="shape=waypoint;sketch=0;fillStyle=solid;size=6;pointerEvents=1;points=[];fillColor=none;resizable=0;rotatable=0;perimeter=centerPerimeter;snapToPoint=1;" vertex="1" parent="1">
          <mxGeometry x="920" y="1720" width="20" height="20" as="geometry" />
        </mxCell>
        <mxCell id="U9RyShKc95j7XySrOqH9-64" value="" style="edgeStyle=orthogonalEdgeStyle;rounded=0;orthogonalLoop=1;jettySize=auto;html=1;exitX=0.5;exitY=1;exitDx=0;exitDy=0;" edge="1" parent="1" source="U9RyShKc95j7XySrOqH9-22" target="U9RyShKc95j7XySrOqH9-63">
          <mxGeometry relative="1" as="geometry">
            <mxPoint x="930" y="1320" as="sourcePoint" />
            <mxPoint x="710" y="2200" as="targetPoint" />
            <Array as="points" />
          </mxGeometry>
        </mxCell>
        <mxCell id="U9RyShKc95j7XySrOqH9-63" value="" style="shape=waypoint;sketch=0;fillStyle=solid;size=6;pointerEvents=1;points=[];fillColor=none;resizable=0;rotatable=0;perimeter=centerPerimeter;snapToPoint=1;" vertex="1" parent="1">
          <mxGeometry x="920" y="1380" width="20" height="20" as="geometry" />
        </mxCell>
        <mxCell id="U9RyShKc95j7XySrOqH9-65" style="edgeStyle=orthogonalEdgeStyle;rounded=0;orthogonalLoop=1;jettySize=auto;html=1;exitX=0.5;exitY=1;exitDx=0;exitDy=0;entryX=0.579;entryY=0.793;entryDx=0;entryDy=0;entryPerimeter=0;" edge="1" parent="1" source="U9RyShKc95j7XySrOqH9-20" target="U9RyShKc95j7XySrOqH9-63">
          <mxGeometry relative="1" as="geometry">
            <Array as="points">
              <mxPoint x="700" y="1390" />
            </Array>
          </mxGeometry>
        </mxCell>
      </root>
    </mxGraphModel>
  </diagram>
</mxfile>
